<?xml version="1.0" encoding="UTF-8"?><svg xmlns="http://www.w3.org/2000/svg" viewBox="0 0 100 100"><defs><style>.cls-1{fill:#fff;}.cls-2{fill:none;stroke:#f35225;stroke-linecap:round;stroke-linejoin:round;stroke-width:2px;}</style></defs><g id="Layer_1"><rect class="cls-1" width="100" height="100"/></g><g id="Layer_6"><g><polygon class="cls-2" points="63.37 25.49 63.37 50.08 38.65 65.23 22.73 65.23 22.73 25.49 63.37 25.49"/><polygon class="cls-2" points="57.12 65.23 63.37 61.4 63.37 65.23 57.12 65.23"/><line class="cls-2" x1="29.21" y1="31.24" x2="56.89" y2="31.24"/><line class="cls-2" x1="29.21" y1="37.18" x2="56.89" y2="37.18"/><line class="cls-2" x1="29.21" y1="43.12" x2="56.89" y2="43.12"/><line class="cls-2" x1="29.21" y1="49.06" x2="42.81" y2="49.06"/><g><polygon class="cls-2" points="72.79 55.64 63.37 61.4 57.12 65.23 41.99 74.51 36.95 66.27 38.65 65.23 63.37 50.08 67.74 47.4 72.79 55.64"/><polygon class="cls-2" points="36.95 66.27 41.99 74.51 33.09 74.29 36.95 66.27"/><path class="cls-2" d="M77.27,50.2c0,1.62-.83,3.2-2.31,4.11l-2.17,1.33-5.05-8.23,2.18-1.33c2.27-1.39,5.24-.68,6.63,1.6,.48,.79,.72,1.66,.72,2.52Z"/></g></g></g></svg>